<mxfile host="app.diagrams.net" modified="2021-07-21T11:02:58.920Z" agent="5.0 (Windows NT 10.0; Win64; x64) AppleWebKit/537.36 (KHTML, like Gecko) Chrome/91.0.4472.164 Safari/537.36" etag="c-_gzD9Xhdq7hKrYKxTN" version="14.9.0" type="github">
  <diagram id="C5RBs43oDa-KdzZeNtuy" name="Page-1">
    <mxGraphModel dx="868" dy="450" grid="1" gridSize="10" guides="1" tooltips="1" connect="1" arrows="1" fold="1" page="1" pageScale="1" pageWidth="827" pageHeight="1169" background="none" math="0" shadow="0">
      <root>
        <mxCell id="WIyWlLk6GJQsqaUBKTNV-0" />
        <mxCell id="WIyWlLk6GJQsqaUBKTNV-1" parent="WIyWlLk6GJQsqaUBKTNV-0" />
        <mxCell id="bf0i7rBuCc89XH2iVv8N-8" value="Product&#xa;" style="swimlane;fontStyle=1;align=center;verticalAlign=top;childLayout=stackLayout;horizontal=1;startSize=26;horizontalStack=0;resizeParent=1;resizeParentMax=0;resizeLast=0;collapsible=1;marginBottom=0;" vertex="1" parent="WIyWlLk6GJQsqaUBKTNV-1">
          <mxGeometry x="30" y="490" width="170" height="220" as="geometry" />
        </mxCell>
        <mxCell id="bf0i7rBuCc89XH2iVv8N-9" value="+ id: int&#xa;+ name: String&#xa;+ category: String&#xa;+ salesPrice: float&#xa;+ cost: float&#xa;+ quantiiy: int&#xa;+ active: boolean" style="text;strokeColor=none;fillColor=none;align=left;verticalAlign=top;spacingLeft=4;spacingRight=4;overflow=hidden;rotatable=0;points=[[0,0.5],[1,0.5]];portConstraint=eastwest;" vertex="1" parent="bf0i7rBuCc89XH2iVv8N-8">
          <mxGeometry y="26" width="170" height="104" as="geometry" />
        </mxCell>
        <mxCell id="bf0i7rBuCc89XH2iVv8N-10" value="" style="line;strokeWidth=1;fillColor=none;align=left;verticalAlign=middle;spacingTop=-1;spacingLeft=3;spacingRight=3;rotatable=0;labelPosition=right;points=[];portConstraint=eastwest;" vertex="1" parent="bf0i7rBuCc89XH2iVv8N-8">
          <mxGeometry y="130" width="170" height="8" as="geometry" />
        </mxCell>
        <mxCell id="bf0i7rBuCc89XH2iVv8N-11" value="+ getProfitOrLoss(): float&#xa;+ activate(): void&#xa;+ deactivate(): void&#xa;+isBelowThreshold(): booleanÂ " style="text;strokeColor=none;fillColor=none;align=left;verticalAlign=top;spacingLeft=4;spacingRight=4;overflow=hidden;rotatable=0;points=[[0,0.5],[1,0.5]];portConstraint=eastwest;" vertex="1" parent="bf0i7rBuCc89XH2iVv8N-8">
          <mxGeometry y="138" width="170" height="82" as="geometry" />
        </mxCell>
        <mxCell id="bf0i7rBuCc89XH2iVv8N-12" value="Order&#xa;" style="swimlane;fontStyle=1;align=center;verticalAlign=top;childLayout=stackLayout;horizontal=1;startSize=26;horizontalStack=0;resizeParent=1;resizeParentMax=0;resizeLast=0;collapsible=1;marginBottom=0;" vertex="1" parent="WIyWlLk6GJQsqaUBKTNV-1">
          <mxGeometry x="260" y="490" width="170" height="154" as="geometry" />
        </mxCell>
        <mxCell id="bf0i7rBuCc89XH2iVv8N-13" value="+ id: int&#xa;+ vendor: Vendor&#xa;+ date: String&#xa;+ orderedProduct: Product&#xa;+ orderedQuantitiy: int&#xa;+ amountPaid: float" style="text;strokeColor=none;fillColor=none;align=left;verticalAlign=top;spacingLeft=4;spacingRight=4;overflow=hidden;rotatable=0;points=[[0,0.5],[1,0.5]];portConstraint=eastwest;" vertex="1" parent="bf0i7rBuCc89XH2iVv8N-12">
          <mxGeometry y="26" width="170" height="94" as="geometry" />
        </mxCell>
        <mxCell id="bf0i7rBuCc89XH2iVv8N-14" value="" style="line;strokeWidth=1;fillColor=none;align=left;verticalAlign=middle;spacingTop=-1;spacingLeft=3;spacingRight=3;rotatable=0;labelPosition=right;points=[];portConstraint=eastwest;" vertex="1" parent="bf0i7rBuCc89XH2iVv8N-12">
          <mxGeometry y="120" width="170" height="8" as="geometry" />
        </mxCell>
        <mxCell id="bf0i7rBuCc89XH2iVv8N-15" value="- updateVendorCredit(): void" style="text;strokeColor=none;fillColor=none;align=left;verticalAlign=top;spacingLeft=4;spacingRight=4;overflow=hidden;rotatable=0;points=[[0,0.5],[1,0.5]];portConstraint=eastwest;" vertex="1" parent="bf0i7rBuCc89XH2iVv8N-12">
          <mxGeometry y="128" width="170" height="26" as="geometry" />
        </mxCell>
        <mxCell id="bf0i7rBuCc89XH2iVv8N-16" value="Customer&#xa;&#xa;" style="swimlane;fontStyle=1;align=center;verticalAlign=top;childLayout=stackLayout;horizontal=1;startSize=26;horizontalStack=0;resizeParent=1;resizeParentMax=0;resizeLast=0;collapsible=1;marginBottom=0;" vertex="1" parent="WIyWlLk6GJQsqaUBKTNV-1">
          <mxGeometry x="800" y="560" width="290" height="100" as="geometry" />
        </mxCell>
        <mxCell id="bf0i7rBuCc89XH2iVv8N-17" value="+transactionCount: int" style="text;strokeColor=none;fillColor=none;align=left;verticalAlign=top;spacingLeft=4;spacingRight=4;overflow=hidden;rotatable=0;points=[[0,0.5],[1,0.5]];portConstraint=eastwest;" vertex="1" parent="bf0i7rBuCc89XH2iVv8N-16">
          <mxGeometry y="26" width="290" height="24" as="geometry" />
        </mxCell>
        <mxCell id="bf0i7rBuCc89XH2iVv8N-18" value="" style="line;strokeWidth=1;fillColor=none;align=left;verticalAlign=middle;spacingTop=-1;spacingLeft=3;spacingRight=3;rotatable=0;labelPosition=right;points=[];portConstraint=eastwest;" vertex="1" parent="bf0i7rBuCc89XH2iVv8N-16">
          <mxGeometry y="50" width="290" height="8" as="geometry" />
        </mxCell>
        <mxCell id="bf0i7rBuCc89XH2iVv8N-19" value="+ getTransactionCount(): int&#xa;+ calculateDiscount(): float" style="text;strokeColor=none;fillColor=none;align=left;verticalAlign=top;spacingLeft=4;spacingRight=4;overflow=hidden;rotatable=0;points=[[0,0.5],[1,0.5]];portConstraint=eastwest;" vertex="1" parent="bf0i7rBuCc89XH2iVv8N-16">
          <mxGeometry y="58" width="290" height="42" as="geometry" />
        </mxCell>
        <mxCell id="bf0i7rBuCc89XH2iVv8N-61" value="Contact&#xa;" style="swimlane;fontStyle=1;align=center;verticalAlign=top;childLayout=stackLayout;horizontal=1;startSize=26;horizontalStack=0;resizeParent=1;resizeParentMax=0;resizeLast=0;collapsible=1;marginBottom=0;flipH=0;flipV=0;" vertex="1" parent="WIyWlLk6GJQsqaUBKTNV-1">
          <mxGeometry x="690" y="270" width="280" height="140" as="geometry" />
        </mxCell>
        <mxCell id="bf0i7rBuCc89XH2iVv8N-62" value="+ name: String&#xa;+ phone: String&#xa;+ email: String" style="text;strokeColor=none;fillColor=none;align=left;verticalAlign=top;spacingLeft=4;spacingRight=4;overflow=hidden;rotatable=0;points=[[0,0.5],[1,0.5]];portConstraint=eastwest;" vertex="1" parent="bf0i7rBuCc89XH2iVv8N-61">
          <mxGeometry y="26" width="280" height="54" as="geometry" />
        </mxCell>
        <mxCell id="bf0i7rBuCc89XH2iVv8N-63" value="" style="line;strokeWidth=1;fillColor=none;align=left;verticalAlign=middle;spacingTop=-1;spacingLeft=3;spacingRight=3;rotatable=0;labelPosition=right;points=[];portConstraint=eastwest;" vertex="1" parent="bf0i7rBuCc89XH2iVv8N-61">
          <mxGeometry y="80" width="280" height="8" as="geometry" />
        </mxCell>
        <mxCell id="bf0i7rBuCc89XH2iVv8N-64" value="+ getContactDetails(): String&#xa;+ updateContactDetails(contactDetail: String): void" style="text;strokeColor=none;fillColor=none;align=left;verticalAlign=top;spacingLeft=4;spacingRight=4;overflow=hidden;rotatable=0;points=[[0,0.5],[1,0.5]];portConstraint=eastwest;" vertex="1" parent="bf0i7rBuCc89XH2iVv8N-61">
          <mxGeometry y="88" width="280" height="52" as="geometry" />
        </mxCell>
        <mxCell id="bf0i7rBuCc89XH2iVv8N-90" value="BussinessPartner" style="swimlane;fontStyle=1;align=center;verticalAlign=top;childLayout=stackLayout;horizontal=1;startSize=26;horizontalStack=0;resizeParent=1;resizeParentMax=0;resizeLast=0;collapsible=1;marginBottom=0;" vertex="1" parent="WIyWlLk6GJQsqaUBKTNV-1">
          <mxGeometry x="416" y="274" width="164" height="140" as="geometry" />
        </mxCell>
        <mxCell id="bf0i7rBuCc89XH2iVv8N-91" value="+ id: int&#xa;+ address: Address&#xa;+ contact: Contact" style="text;strokeColor=none;fillColor=none;align=left;verticalAlign=top;spacingLeft=4;spacingRight=4;overflow=hidden;rotatable=0;points=[[0,0.5],[1,0.5]];portConstraint=eastwest;" vertex="1" parent="bf0i7rBuCc89XH2iVv8N-90">
          <mxGeometry y="26" width="164" height="54" as="geometry" />
        </mxCell>
        <mxCell id="bf0i7rBuCc89XH2iVv8N-92" value="" style="line;strokeWidth=1;fillColor=none;align=left;verticalAlign=middle;spacingTop=-1;spacingLeft=3;spacingRight=3;rotatable=0;labelPosition=right;points=[];portConstraint=eastwest;" vertex="1" parent="bf0i7rBuCc89XH2iVv8N-90">
          <mxGeometry y="80" width="164" height="8" as="geometry" />
        </mxCell>
        <mxCell id="bf0i7rBuCc89XH2iVv8N-93" value="+ getContact(): Contact&#xa;+ getAddress(): Address" style="text;strokeColor=none;fillColor=none;align=left;verticalAlign=top;spacingLeft=4;spacingRight=4;overflow=hidden;rotatable=0;points=[[0,0.5],[1,0.5]];portConstraint=eastwest;" vertex="1" parent="bf0i7rBuCc89XH2iVv8N-90">
          <mxGeometry y="88" width="164" height="52" as="geometry" />
        </mxCell>
        <mxCell id="bf0i7rBuCc89XH2iVv8N-94" value="Address&#xa;" style="swimlane;fontStyle=1;align=center;verticalAlign=top;childLayout=stackLayout;horizontal=1;startSize=26;horizontalStack=0;resizeParent=1;resizeParentMax=0;resizeLast=0;collapsible=1;marginBottom=0;" vertex="1" parent="WIyWlLk6GJQsqaUBKTNV-1">
          <mxGeometry x="20" y="274" width="290" height="160" as="geometry" />
        </mxCell>
        <mxCell id="bf0i7rBuCc89XH2iVv8N-95" value="+ street: String&#xa;+ city: String&#xa;+ state: String" style="text;strokeColor=none;fillColor=none;align=left;verticalAlign=top;spacingLeft=4;spacingRight=4;overflow=hidden;rotatable=0;points=[[0,0.5],[1,0.5]];portConstraint=eastwest;" vertex="1" parent="bf0i7rBuCc89XH2iVv8N-94">
          <mxGeometry y="26" width="290" height="54" as="geometry" />
        </mxCell>
        <mxCell id="bf0i7rBuCc89XH2iVv8N-96" value="" style="line;strokeWidth=1;fillColor=none;align=left;verticalAlign=middle;spacingTop=-1;spacingLeft=3;spacingRight=3;rotatable=0;labelPosition=right;points=[];portConstraint=eastwest;" vertex="1" parent="bf0i7rBuCc89XH2iVv8N-94">
          <mxGeometry y="80" width="290" height="8" as="geometry" />
        </mxCell>
        <mxCell id="bf0i7rBuCc89XH2iVv8N-97" value="+ getAddressDetails(): String&#xa;+ updateAddressDetails(addressDetail: String): void" style="text;strokeColor=none;fillColor=none;align=left;verticalAlign=top;spacingLeft=4;spacingRight=4;overflow=hidden;rotatable=0;points=[[0,0.5],[1,0.5]];portConstraint=eastwest;" vertex="1" parent="bf0i7rBuCc89XH2iVv8N-94">
          <mxGeometry y="88" width="290" height="72" as="geometry" />
        </mxCell>
        <mxCell id="bf0i7rBuCc89XH2iVv8N-99" value="" style="endArrow=diamondThin;endFill=1;endSize=24;html=1;entryX=0.006;entryY=0.907;entryDx=0;entryDy=0;entryPerimeter=0;" edge="1" parent="WIyWlLk6GJQsqaUBKTNV-1" target="bf0i7rBuCc89XH2iVv8N-91">
          <mxGeometry width="160" relative="1" as="geometry">
            <mxPoint x="310" y="349" as="sourcePoint" />
            <mxPoint x="530" y="880" as="targetPoint" />
          </mxGeometry>
        </mxCell>
        <mxCell id="bf0i7rBuCc89XH2iVv8N-103" value="" style="endArrow=diamondThin;endFill=1;endSize=24;html=1;exitX=0;exitY=0.796;exitDx=0;exitDy=0;exitPerimeter=0;" edge="1" parent="WIyWlLk6GJQsqaUBKTNV-1" source="bf0i7rBuCc89XH2iVv8N-62">
          <mxGeometry width="160" relative="1" as="geometry">
            <mxPoint x="370" y="880" as="sourcePoint" />
            <mxPoint x="580" y="338" as="targetPoint" />
            <Array as="points" />
          </mxGeometry>
        </mxCell>
        <mxCell id="bf0i7rBuCc89XH2iVv8N-104" value="1" style="text;html=1;strokeColor=none;fillColor=none;align=center;verticalAlign=middle;whiteSpace=wrap;rounded=0;" vertex="1" parent="WIyWlLk6GJQsqaUBKTNV-1">
          <mxGeometry x="310" y="330" width="20" height="10" as="geometry" />
        </mxCell>
        <mxCell id="bf0i7rBuCc89XH2iVv8N-105" value="Extends" style="endArrow=block;endSize=16;endFill=0;html=1;exitX=0.555;exitY=0;exitDx=0;exitDy=0;exitPerimeter=0;" edge="1" parent="WIyWlLk6GJQsqaUBKTNV-1" source="bf0i7rBuCc89XH2iVv8N-20" target="bf0i7rBuCc89XH2iVv8N-64">
          <mxGeometry width="160" relative="1" as="geometry">
            <mxPoint x="680" y="488" as="sourcePoint" />
            <mxPoint x="840" y="460" as="targetPoint" />
          </mxGeometry>
        </mxCell>
        <mxCell id="bf0i7rBuCc89XH2iVv8N-134" value="Extends" style="endArrow=block;endSize=16;endFill=0;html=1;" edge="1" parent="WIyWlLk6GJQsqaUBKTNV-1" source="bf0i7rBuCc89XH2iVv8N-16">
          <mxGeometry width="160" relative="1" as="geometry">
            <mxPoint x="960" y="557" as="sourcePoint" />
            <mxPoint x="860" y="410" as="targetPoint" />
          </mxGeometry>
        </mxCell>
        <mxCell id="bf0i7rBuCc89XH2iVv8N-20" value="Vendor&#xa;" style="swimlane;fontStyle=1;align=center;verticalAlign=top;childLayout=stackLayout;horizontal=1;startSize=26;horizontalStack=0;resizeParent=1;resizeParentMax=0;resizeLast=0;collapsible=1;marginBottom=0;" vertex="1" parent="WIyWlLk6GJQsqaUBKTNV-1">
          <mxGeometry x="480" y="540" width="290" height="170" as="geometry" />
        </mxCell>
        <mxCell id="bf0i7rBuCc89XH2iVv8N-21" value="+ vendorName: String&#xa;+ credit: float&#xa;+ products: Product[0..100]&#xa;+ orders: Order[0..100]" style="text;strokeColor=none;fillColor=none;align=left;verticalAlign=top;spacingLeft=4;spacingRight=4;overflow=hidden;rotatable=0;points=[[0,0.5],[1,0.5]];portConstraint=eastwest;" vertex="1" parent="bf0i7rBuCc89XH2iVv8N-20">
          <mxGeometry y="26" width="290" height="74" as="geometry" />
        </mxCell>
        <mxCell id="bf0i7rBuCc89XH2iVv8N-22" value="" style="line;strokeWidth=1;fillColor=none;align=left;verticalAlign=middle;spacingTop=-1;spacingLeft=3;spacingRight=3;rotatable=0;labelPosition=right;points=[];portConstraint=eastwest;" vertex="1" parent="bf0i7rBuCc89XH2iVv8N-20">
          <mxGeometry y="100" width="290" height="8" as="geometry" />
        </mxCell>
        <mxCell id="bf0i7rBuCc89XH2iVv8N-23" value="+ checkDue(): float&#xa;+ fetchProductById(id: int): Product&#xa;+ fetchProductByName(name: String): Product" style="text;strokeColor=none;fillColor=none;align=left;verticalAlign=top;spacingLeft=4;spacingRight=4;overflow=hidden;rotatable=0;points=[[0,0.5],[1,0.5]];portConstraint=eastwest;" vertex="1" parent="bf0i7rBuCc89XH2iVv8N-20">
          <mxGeometry y="108" width="290" height="62" as="geometry" />
        </mxCell>
        <mxCell id="bf0i7rBuCc89XH2iVv8N-154" value="" style="endArrow=diamondThin;endFill=0;endSize=24;html=1;" edge="1" parent="WIyWlLk6GJQsqaUBKTNV-1" target="bf0i7rBuCc89XH2iVv8N-23">
          <mxGeometry width="160" relative="1" as="geometry">
            <mxPoint x="200" y="680" as="sourcePoint" />
            <mxPoint x="479" y="681" as="targetPoint" />
          </mxGeometry>
        </mxCell>
        <mxCell id="bf0i7rBuCc89XH2iVv8N-155" value="" style="endArrow=diamondThin;endFill=0;endSize=24;html=1;" edge="1" parent="WIyWlLk6GJQsqaUBKTNV-1">
          <mxGeometry width="160" relative="1" as="geometry">
            <mxPoint x="201" y="581" as="sourcePoint" />
            <mxPoint x="260" y="581" as="targetPoint" />
          </mxGeometry>
        </mxCell>
        <mxCell id="bf0i7rBuCc89XH2iVv8N-158" value="" style="line;strokeWidth=1;rotatable=0;dashed=0;labelPosition=right;align=left;verticalAlign=middle;spacingTop=0;spacingLeft=6;points=[];portConstraint=eastwest;" vertex="1" parent="WIyWlLk6GJQsqaUBKTNV-1">
          <mxGeometry x="430" y="575" width="50" height="10" as="geometry" />
        </mxCell>
        <mxCell id="bf0i7rBuCc89XH2iVv8N-164" value="*" style="text;html=1;strokeColor=none;fillColor=none;align=center;verticalAlign=middle;whiteSpace=wrap;rounded=0;" vertex="1" parent="WIyWlLk6GJQsqaUBKTNV-1">
          <mxGeometry x="200" y="660" width="10" height="10" as="geometry" />
        </mxCell>
        <mxCell id="bf0i7rBuCc89XH2iVv8N-165" value="*" style="text;html=1;strokeColor=none;fillColor=none;align=center;verticalAlign=middle;whiteSpace=wrap;rounded=0;" vertex="1" parent="WIyWlLk6GJQsqaUBKTNV-1">
          <mxGeometry x="450" y="655" width="40" height="20" as="geometry" />
        </mxCell>
        <mxCell id="bf0i7rBuCc89XH2iVv8N-166" value="1" style="text;html=1;strokeColor=none;fillColor=none;align=center;verticalAlign=middle;whiteSpace=wrap;rounded=0;" vertex="1" parent="WIyWlLk6GJQsqaUBKTNV-1">
          <mxGeometry x="120" y="557" width="170" height="20" as="geometry" />
        </mxCell>
        <mxCell id="bf0i7rBuCc89XH2iVv8N-167" value="1" style="text;html=1;strokeColor=none;fillColor=none;align=center;verticalAlign=middle;whiteSpace=wrap;rounded=0;" vertex="1" parent="WIyWlLk6GJQsqaUBKTNV-1">
          <mxGeometry x="230" y="557" width="40" height="20" as="geometry" />
        </mxCell>
        <mxCell id="bf0i7rBuCc89XH2iVv8N-168" value="*" style="text;html=1;strokeColor=none;fillColor=none;align=center;verticalAlign=middle;whiteSpace=wrap;rounded=0;" vertex="1" parent="WIyWlLk6GJQsqaUBKTNV-1">
          <mxGeometry x="416" y="560" width="40" height="20" as="geometry" />
        </mxCell>
        <mxCell id="bf0i7rBuCc89XH2iVv8N-169" value="1" style="text;html=1;strokeColor=none;fillColor=none;align=center;verticalAlign=middle;whiteSpace=wrap;rounded=0;" vertex="1" parent="WIyWlLk6GJQsqaUBKTNV-1">
          <mxGeometry x="456" y="560" width="40" height="20" as="geometry" />
        </mxCell>
        <mxCell id="bf0i7rBuCc89XH2iVv8N-171" value="1" style="text;html=1;strokeColor=none;fillColor=none;align=center;verticalAlign=middle;whiteSpace=wrap;rounded=0;" vertex="1" parent="WIyWlLk6GJQsqaUBKTNV-1">
          <mxGeometry x="570" y="310" width="40" height="20" as="geometry" />
        </mxCell>
        <mxCell id="bf0i7rBuCc89XH2iVv8N-172" value="1" style="text;html=1;strokeColor=none;fillColor=none;align=center;verticalAlign=middle;whiteSpace=wrap;rounded=0;" vertex="1" parent="WIyWlLk6GJQsqaUBKTNV-1">
          <mxGeometry x="376" y="325" width="40" height="20" as="geometry" />
        </mxCell>
        <mxCell id="bf0i7rBuCc89XH2iVv8N-174" value="1" style="text;html=1;strokeColor=none;fillColor=none;align=center;verticalAlign=middle;whiteSpace=wrap;rounded=0;" vertex="1" parent="WIyWlLk6GJQsqaUBKTNV-1">
          <mxGeometry x="660" y="310" width="40" height="20" as="geometry" />
        </mxCell>
      </root>
    </mxGraphModel>
  </diagram>
</mxfile>
